<svg xmlns="http://www.w3.org/2000/svg" xml:space="preserve" id="messages" x="0" y="0" version="1.1" viewBox="0 0 52 52">
  <path d="M12.588 15.766h-.25c-1.609 0-1.611 2.5 0 2.5h.25c1.609 0 1.611-2.5 0-2.5z"></path>
  <path d="M13.495 16.432c.844-.37.88-.637 1.332-1.359.284-.452.563-1.679.704-1.974.783-1.637 1.444-2.128 2.947-3.2 4.864-3.468 10.88-4.33 16.727-3.608 5.44.673 11.584 3.46 13.277 8.991 1.803 5.887-3.394 8.963-7.862 11.305-1.426.747-.164 2.906 1.261 2.159 3.975-2.083 9.532-5.141 9.584-10.369.07-7.09-4.05-10.509-10.082-13.028-5.435-2.27-12.098-2.378-17.729-.752-2.776.801-5.203 2.133-7.486 3.894-1.004.774-2.325 1.6-3.008 2.693.057-.09-1.362 3.28-.927 3.09-1.47.643-.2 2.798 1.262 2.158z"></path>
  <path d="M39.18 26.894c1.131 5.017-.458 9.721-5.213 12.124-2.853 1.442-6.528 3.074-9.543 3.309-3.153.246-6.765-1.676-9.81-.949-2.977.71-5.882 3.535-8.708 4.825l1.88 1.079c-.348-3.818-.157-6.726-1.964-10.178-1.693-3.235-3.692-5.233-2.007-9.4.993-2.454 3.312-4.76 5.523-6.057 4.9-2.874 10.805-2.223 16.122-1.046 4.508.998 11.765 2.487 13.984 6.963.715 1.441 2.872.176 2.159-1.262-2.356-4.752-9.05-6.45-13.783-7.7-5.55-1.464-12.18-2.536-17.606-.2C5.821 20.294 1.074 24.728.57 29.76c-.174 1.747.31 3.314 1.008 4.893.576 1.302 1.428 2.456 2.086 3.713 1.55 2.96 1.33 5.715 1.623 8.916.09.994.98 1.49 1.88 1.08 2.38-1.086 4.953-3.467 7.339-4.226 2.367-.754 5.644.578 8.17.664 1.9.064 4.05.34 5.855-.307 1.75-.625 3.303-1.874 5.025-2.617 6.746-2.908 9.666-8.407 8.035-15.647-.353-1.568-2.764-.905-2.41.665z"></path>
</svg>
