<svg xmlns="http://www.w3.org/2000/svg" width="128" height="128" fill="none" viewBox="0 0 128 128" id="dislike">
  <g clip-path="url(#clip0_28_1102)">
    <rect width="22" height="62" stroke="#000" stroke-width="7" rx="11" transform="matrix(1 0 0 -1 90 79)"></rect>
    <path stroke="#000" stroke-width="7" d="M19.1731 44.9676C16.2969 55.7984 14.8588 61.2139 16.2624 65.4564C17.3282 68.6776 19.4546 71.4424 22.2944 73.2993C26.0345 75.7448 31.6377 75.7448 42.8439 75.7448H44.489C47.2355 75.7448 48.6087 75.7448 49.6391 76.1366C51.6444 76.8992 53.0899 78.6745 53.4304 80.7927C53.6053 81.8811 53.327 83.2258 52.7705 85.9154V85.9154C50.383 97.4533 49.1893 103.222 50.0325 105.595C51.7003 110.287 56.8613 112.733 61.5491 111.053C63.9192 110.203 67.6287 105.627 75.0477 96.4734L83.1227 86.5107C85.6246 83.4239 86.8756 81.8804 87.6738 80.1104C88.0157 79.3524 88.2939 78.5674 88.5056 77.7633C89 75.8856 89 73.8988 89 69.9254L89 47C89 32.8579 89 25.7868 84.6066 21.3934C80.2132 17 73.1421 17 59 17H49.1904C38.5727 17 33.2639 17 29.3214 19.8636C29.0994 20.0248 28.8819 20.1921 28.6692 20.3652C24.8897 23.4406 23.5271 28.5717 20.802 38.8337L19.1731 44.9676Z"></path>
  </g>
  <defs>
    <clipPath id="clip0_28_1102">
      <rect width="128" height="128" fill="#fff"></rect>
    </clipPath>
  </defs>
</svg>
