<svg xmlns="http://www.w3.org/2000/svg" xml:space="preserve" viewBox="0 0 52 52" id="user-workflow">
  <path d="M5.3 40.641c1.27.177 2.841.184 4.037.656l-.873-.873c.37.89-.17 2.763-.29 3.759-.111.915.064 1.095-.583 1.343-.506.194-1.487 0-2.033 0-.52 0-1.231-.128-1.743.001-.469-.189-.688-.07-.658.358-.007-.418-.012-.837-.017-1.255-.014-1.39-.256-3.043.035-4.402l-.575.747c.182-.095 1.887.446 2.19.506 1.57.314 2.243-2.095.664-2.41-1.14-.228-2.877-.953-3.973-.33-1.278.728-.85 2.782-.85 4.005 0 1.331-.428 3.52.505 4.632.892 1.063 2.912.65 4.131.649 1.308 0 3.179.368 4.283-.502 1.052-.829 1.019-2.438 1.16-3.647.138-1.196.748-3.31.039-4.418-.786-1.225-3.52-1.054-4.785-1.23-1.574-.218-2.254 2.19-.665 2.411z"></path>
  <path d="M6.623 39.623c.013-.73-.62-6.06-.301-6.337-.236.205 3.7-.047 3.863-.051a586.95 586.95 0 0 1 12.933-.15c4.312-.008 8.624.023 12.936.069 1.99.02 3.98.069 5.97.072 1.245.048 2.49.037 3.733-.031a25.857 25.857 0 0 1-.537 5.318c-.272 1.574 2.136 2.25 2.41.665.45-2.598 1.967-6.927-.973-8.288-2.048-.948-6.366-.188-8.613-.214-3.98-.046-7.96-.083-11.94-.091-3.65-.008-7.297.007-10.945.058-2.64.037-7.142-.66-9.564.284-3.221 1.254-1.421 5.892-1.472 8.696-.03 1.61 2.47 1.61 2.5 0z"></path>
  <path d="M44.075 43.442c-.028-.785-.318-2.07-.044-2.8l-.575.747c1.056-.639 5.056-1.364 5.38.272.14.71-.082 1.596-.062 2.32.024.914.208 1.823.188 2.736l.366-.884c-.251.278-2.275.026-2.676.027-.96.002-2.119.187-3.056.017l.873.873c.033.103.193-1.05.14-1.341-.143-.802-.593-1.484-.706-2.297-.221-1.586-2.63-.911-2.41.665.1.724.6 1.448.61 2.151.01.562-.234.9-.045 1.486.126.391.442.795.873.873 1.378.25 2.907.075 4.302.072 1.073-.002 2.578.264 3.51-.411 1.123-.813.622-2.25.554-3.407-.078-1.316.257-2.766-.092-4.05-.69-2.538-4.132-2.41-6.203-2.117-1.023.146-2.636.338-3.256 1.304-.617.962-.208 2.702-.17 3.764.056 1.604 2.556 1.612 2.5 0zM24.971 27.026c.007 3.897.179 7.783.515 11.665.137 1.591 2.639 1.606 2.5 0a138.02 138.02 0 0 1-.515-11.665c-.003-1.608-2.503-1.611-2.5 0z"></path>
  <path d="M26.938 40.827c2.654-.507 2.197 1.81 2.21 3.481.003.421.08.94-.127 1.077-.093.062-1.252.059-1.332.066l-2.693.25c-.25.022-.867.199-1.094.093-.19-.088-.059-.02-.007-.676.064-.825-.006-1.69-.009-2.518 0-.303.1-.838-.003-1.12-.205-.553-.498-.362.203-.457 1.019-.137 2.133.127 3.114.37 1.562.386 2.228-2.024.665-2.411-1.543-.382-3.583-.803-5.136-.29-1.598.528-1.348 2.258-1.343 3.628.004 1.442-.38 3.498.297 4.825.766 1.503 2.547 1.126 3.911 1 1.484-.138 3.709.086 5.033-.661 1.324-.748 1.026-2.45 1.017-3.737-.01-1.339.236-3.086-.806-4.14-1.106-1.12-3.096-1.471-4.564-1.19-1.579.301-.91 2.711.664 2.41zM24.762 13.583c-1.09-1.405-2.237-3.242-1.76-5.108.485-1.89 2.281-2.402 3.995-2.396.603.002 1.781-.123 2.312.178 1.034.587 1.097 1.997.957 2.997-.247 1.771-1.406 3.12-2.67 4.298-1.179 1.1.592 2.865 1.768 1.768 2.144-2 3.822-4.635 3.381-7.685-.474-3.28-2.775-4.046-5.748-4.056-2.582-.01-5.066.98-6.144 3.49-1.276 2.971.34 5.96 2.14 8.282.986 1.27 2.743-.512 1.769-1.768z"></path>
  <path d="M38.494 24.689c-3.483-.873-7.487-.366-11.053-.246-2.726.092-7.494 1.544-9.744-.122-2.212-1.637.91-3.892 2.211-5.138 1.772-1.695 4.057-2.918 6.614-2.86 5.703.131 8.986 4.515 10.202 9.545.378 1.563 2.79.9 2.411-.665-2.673-11.056-14.732-14.908-22.726-6.457-1.98 2.094-3.166 7.11.225 8.324 2.12.759 4.909.346 7.074.13 4.28-.429 9.916-1.154 14.121-.1 1.561.39 2.227-2.02.665-2.411z"></path>
</svg>
