<svg xmlns="http://www.w3.org/2000/svg" xml:space="preserve" viewBox="0 0 52 52" id="user-search">
  <path d="M32.866 23.973c-1.024-1.056-1.35-2.47-2.464-3.493-1.354-1.24-3.317-2.276-4.98-2.995-3.517-1.519-7.756-1.66-11.513-1.04C5.73 17.795 2.712 25.41.833 32.468c-.415 1.556 1.996 2.22 2.41.664 1.885-7.078 4.668-13.32 12.78-14.353 3.543-.451 6.992.165 10.104 1.905 2.358 1.318 3.228 3.258 4.971 5.057 1.122 1.158 2.888-.611 1.768-1.768z"></path>
  <path d="M32.384 23.585c-5.389 2.214-8.45 10.527-6.966 16.039.736 2.734 2.619 4.159 5.129 5.015 2.31.788 7.182 2.653 9.497.942.438-.324.612-.984.99-1.373.73-.75 1.629-1.15 2.51-1.772 1.086-.766 2.267-1.662 2.935-2.841 1.394-2.462 1.151-6.138.55-8.793-.67-2.964-1.675-5.756-4.765-6.5-3.152-.76-7.32-2.209-10.35-.474-1.395.8-.137 2.96 1.263 2.159 1.776-1.018 6.612-.04 8.422.725 2.208.935 2.843 3.518 3.17 5.823.463 3.281.114 5.542-2.487 7.743-.978.827-2.223 1.318-3.22 2.122-.71.573-.154.7-1.142 1.082-1.102.427-2.8-.156-3.903-.41-2.187-.506-5.153-1.298-5.992-3.648-1.432-4.016.994-11.773 5.023-13.428 1.468-.603.825-3.023-.664-2.411z"></path>
  <path d="M25.49 32.018c-2.058.168-4.05-.33-6.095-.212-1.63.094-3.187.374-4.826.389-4.05.036-8.094-.144-12.133-.439-1.605-.117-1.597 2.384 0 2.5 4.039.295 8.083.475 12.133.439a38.87 38.87 0 0 0 3.89-.213c2.425-.264 4.625.232 7.03.036 1.593-.13 1.607-2.631 0-2.5zM45.338 40.905c.964 1.166 2.427 2.482 3.067 3.86.768 1.652.083 4.03-2.128 3.55-1.38-.3-2.032-1.257-2.699-2.395-.205-.35-1.765-2.044-1.748-1.226-.034-1.606-2.534-1.612-2.5 0 .024 1.094.442 1.448 1.3 2 .975.626 1.259 1.617 2.125 2.464 1.445 1.412 3.698 2.098 5.664 1.533 2.207-.634 2.814-2.612 2.796-4.7-.026-2.83-2.42-4.81-4.11-6.854-1.026-1.24-2.786.537-1.767 1.768zM15.907 15.596c-.915-1.883-2.49-4.205-2.905-6.258-.769-3.803 2.703-6.172 6.107-5.724 3.012.397 4.987 3.405 4.494 6.461-.358 2.211-2.065 4.72-3.24 6.573-.864 1.362 1.299 2.618 2.159 1.261 2.106-3.322 4.604-7.346 3.166-11.352-1.215-3.384-2.875-5.373-6.58-5.443-3.82-.071-6.828 1.063-8.313 4.804-1.5 3.783 1.355 7.649 2.954 10.94.703 1.446 2.86.18 2.158-1.262z"></path>
</svg>
