<svg xmlns="http://www.w3.org/2000/svg" xml:space="preserve" id="configuration" x="0" y="0" version="1.1" viewBox="0 0 52 52">
  <path d="M6.552 17.206c1.356-.933 2.205-1.883 2.559-3.552.288-1.36-.459-2.238-.361-3.516-.253-.404-.172-.811.244-1.221.149-1.236.656-1.279 1.524-.129 1.231.233 2.331 1.406 3.67.754 1.55-.754 1.793-2.963 2.89-3.938 2.897-2.575 2.034.118 3.622 1.735C21.897 8.556 24.008 9 25.66 8.84c-1.409.137 2.221-.422 1.95-.512 2.754.914.626 3.45.661 4.96.041 1.764.63 2.092 1.698 3.248 1.056 1.14 3.392-.138 1.922 3.395-.086.206-2.059 1.492-2.378 1.908-1.264 1.653-.666 2.25-.967 4.018-.935 5.491-2.471 1.173-5.606 2.41-2.349.925-2.155 4.766-4.893 3.81-.847-.296-1.834-2.812-3.223-3.378-2.285-.932-5.245 1.12-6.173-1.86-.448-1.44.843-3.284-.058-4.995-.48-.91-.998-1.02-1.561-1.739-.234-.3-5.489-1.861-1.194-3.337 1.512-.52.862-2.935-.665-2.41-2.407.827-5.852 3.686-3.284 6.324.6.616 1.62.562 2.21 1.019.944.732 1.946 3.046 2.141 4.472.064.468-.442.964-.366 1.443.21 1.322.588 3.267 1.997 3.903.556.25 1.19-.025 1.759.069.433.072.849-.429 1.267-.384.446.048 4.86 2.5 5.114 2.711 1.146.957 1.073 2.176 3.118 1.923 1.949-.242 2.18-1.743 3.213-3.002 3.337-4.068 4.33.138 7.736-1.114 1.253-.46 1.774-1.27 1.922-2.657.12-1.124-.76-2.168-.688-3.148.11-1.497-2.657 4.24.857-2.063 1.242-2.227 1.476-1.105 2.581-2.522 2.424-3.105.719-4.086-1.665-6.154-3.523-3.056-.465-3.91-1.046-7.238-.24-1.376-1.076-2.43-2.442-2.76-1.108-.266-1.416.335-2.377.316-1.301-.024-4.427-.564-5.535-1.714-1.245-1.293-.26-2.23-2.282-2.738-1.616-.407-2.839.42-3.785 1.524-.966 1.124-1.178 3.915-2.583 4.442-1.037.389-2.405-1.475-3.625-1.833-6.864-2.019-1.574 8.117-4.12 9.87-1.317.906-.068 3.074 1.262 2.158z"></path>
  <path d="M16.73 15.192c1.88-1.018 3.69-.13 4.637 1.646.922 1.729 1.653 4.301-.9 4.852-1.684.364-4.067.59-5.025-1.138-.878-1.587-.489-3.617.669-4.94 1.055-1.207-.706-2.982-1.768-1.768-2.01 2.3-2.56 5.72-.82 8.361 1.8 2.733 6.159 2.75 8.883 1.477 3.254-1.52 2.515-5.509 1.12-8.106-1.622-3.02-5-4.197-8.058-2.543-1.416.766-.155 2.925 1.261 2.159zM38.593 37.506c1.133-.264 2.466-.525 2.787.935.252 1.15-.226 2.897-1.478 3.142-1.027.2-2.393.194-2.725-.963-.31-1.081-.215-2.937 1.114-3.156 1.583-.262.912-2.672-.665-2.411-2.806.464-3.46 3.875-2.86 6.231.669 2.624 3.428 3.214 5.8 2.71 2.617-.557 3.708-3.593 3.253-6.035-.561-3.018-3.332-3.46-5.89-2.864-1.567.366-.904 2.777.664 2.411z"></path>
  <path d="M38.207 37.447c1.609 0 1.611-2.5 0-2.5-1.609 0-1.611 2.5 0 2.5zM39.207 32.28c1.609 0 1.611-2.5 0-2.5-1.609 0-1.611 2.5 0 2.5z"></path>
  <path d="M39.207 32.28c1.609 0 1.611-2.5 0-2.5-1.609 0-1.611 2.5 0 2.5z"></path>
  <path d="M39.207 32.28c1.609 0 1.611-2.5 0-2.5-1.609 0-1.611 2.5 0 2.5z"></path>
  <path d="M39.207 32.28c1.609 0 1.611-2.5 0-2.5-1.609 0-1.611 2.5 0 2.5z"></path>
  <path d="M40.553 32.004c1.398-.216 2.08-1.529 3.102.077.739 1.159.12 2.092 1.123 3.153.696.736 2.765.307 3.033 1.667.127.644-1.241 2.184-1.103 3.302.078.635 1.954 3.532 1.908 3.614-.078.137-2.812.047-3.352.35-1.082.606-1.262 1.287-1.77 2.38-1.09 2.348-.546 1.83-2.67 1.068-1.05-.377-2.161-.25-3.25-.098-.694.097-2.107.906-2.773.54.665.365-1.22-2.847-.911-2.409-.709-1.005-1.668-1.224-2.553-1.938l-1.115-.23 1.094-1.743c.19-.383.4-.569.49-1.032.3-1.53-.458-1.954-.972-3.459-.803-2.355.302-1.063 1.908-1.654 1.04-.381 1.21-.685 1.677-1.661.302-.633.206-1.507.344-2.186.489-2.422 1.12-1.262 2.863-.17 1.367.858 2.623-1.304 1.262-2.158-1.766-1.107-3.595-2.936-5.342-1.017-1.032 1.133-.627 3.023-1.41 4.063-.863 1.147-2.06.597-3.411.868-.41.083-.775.477-.873.873-.393 1.594.215 2.666.663 4.202.501 1.717.507 1.092.115 2.667-.195.781-.617 1.105-.72 1.82-.181 1.27.145 1.821.79 2.726.175.247 2.438 1.851 2.274 1.687.368.368 1.279 2.047 1.768 2.428 2.636 2.054 5.256-.36 8.002.798 2.931 1.235 3.245.204 4.943-2.034l1.998-2.208a5.394 5.394 0 0 0 1.516-.04c.385-.202.7-.123 1.093-.475.604-.54.76-1.16.72-1.997-.089-1.815-2.046-2.88-1.616-4.798.32-1.426 1.673-1.787 1.262-3.478-.273-1.124-1.176-1.684-2.141-2.114-.705-.314-1.577.046-2.186-.602-.422-.449-.459-2.292-.864-2.982-.512-.874-1.264-1.808-2.392-1.832-1.415-.03-1.911 1.424-3.188 1.621-1.585.245-.912 2.655.664 2.411z"></path>
  <path d="M38.457 31.78c1.609 0 1.611-2.5 0-2.5-1.609 0-1.611 2.5 0 2.5z"></path>
</svg>
