<svg xmlns="http://www.w3.org/2000/svg" xml:space="preserve" id="statistics" x="0" y="0" version="1.1" viewBox="0 0 52 52">
  <path d="M4.913 38.923c.971-.033 1.984-.15 2.953-.098 1.282.068 1.425.292 1.84 1.602.29.91.406 1.88.322 2.832-.114 1.303-.51 1.879-1.733 2.178-1.974.482-3.819.67-4.584-1.591-.396-1.17-.617-4.918 1.44-4.797 1.607.094 1.602-2.406 0-2.5-3.548-.21-4.525 4.114-4.085 6.894.242 1.528.93 3.022 2.14 4.022 1.36 1.126 2.744.902 4.39.621 1.423-.242 2.995-.438 3.964-1.637 1.078-1.334 1.101-3.497.89-5.107-.192-1.468-.745-3.61-2.015-4.54-1.407-1.03-3.91-.433-5.522-.38-1.604.054-1.612 2.554 0 2.5zM18.753 18.501c2.216-1.345 3.783-.034 4.528 2.128.217.631.406 1.323.435 1.992.035.465-.014.921-.147 1.37-.279.851-.809 1.224-1.59 1.118-1.753.461-3.768.542-4.534-1.39-.72-1.814-.925-4.023 1.24-4.893 1.474-.592.83-3.01-.665-2.41-3.465 1.39-4.221 4.666-2.986 7.967.568 1.52 1.4 2.847 3.058 3.296 1.54.418 3.736.17 5.271-.22 3.527-.9 3.103-5.638 2.058-8.197-1.396-3.419-4.605-4.938-7.93-2.92-1.373.834-.118 2.997 1.262 2.16z"></path>
  <path d="M15.706 26.315c-1.38 4.031-3.385 6.792-6.18 9.949-1.063 1.2.699 2.975 1.768 1.767 1.428-1.612 2.923-3.199 4.121-4.995 1.239-1.856 1.984-3.96 2.702-6.057.522-1.525-1.892-2.18-2.41-.664zM22.292 27.763c.59.599.86 1.562 1.247 2.3.437.832.92 1.637 1.435 2.423.877 1.341 3.043.09 2.158-1.262a29.169 29.169 0 0 1-1.596-2.735c-.444-.874-.775-1.783-1.477-2.493-1.132-1.147-2.9.621-1.767 1.767z"></path>
  <path d="M26.961 33.904c1.82-.611 3.58-.093 4.584 1.578.547.91.731 1.985.685 3.035-.058 1.289-.343 1.32-1.395 1.773-1.817.783-3.519 1.212-4.622-.886-.644-1.226-1.196-4.626.64-5.205 1.53-.481.877-2.896-.664-2.41-3.217 1.013-3.547 5.1-2.588 7.883 1.15 3.336 4.284 4.547 7.424 3.238 1.284-.535 2.859-.912 3.393-2.336.595-1.586.397-3.717-.201-5.264-1.257-3.251-4.587-4.936-7.92-3.817-1.518.51-.867 2.925.664 2.411zM42.072 8.393c.175-1.348 1.677-1.82 2.802-1.988.946-.142 1.3-.162 1.978.358 1.649 1.265 2.543 4.73.746 6.303-.693.607-1.681.786-2.574.84-.87.054-1.017-.241-1.668-.675-.607-.404-.899-.369-1.143-1.145-.316-1.003-.242-2.313-.333-3.357-.14-1.59-2.642-1.605-2.5 0 .143 1.635-.01 3.769.883 5.226.547.892 2.128 2.083 3.122 2.366 3.182.905 6.992-1.16 7.534-4.43.258-1.559.103-4.035-.763-5.41-.423-.671-1.167-1.16-1.698-1.738-.42-.456-.667-.719-1.284-.873-3.243-.81-7.161 1.124-7.602 4.523-.206 1.591 2.296 1.576 2.5 0z"></path>
  <path d="M41.728 13.756c-2.038 2.214-3.188 5.18-4.57 7.823-1.636 3.13-3.252 8.346-6.195 10.47-1.292.934-.046 3.103 1.262 2.16 2.554-1.845 3.661-4.806 5.087-7.532 1.87-3.579 3.441-8.173 6.183-11.153 1.088-1.182-.675-2.955-1.767-1.768z"></path>
</svg>
