<svg xmlns="http://www.w3.org/2000/svg" xml:space="preserve" id="stopwatch" x="0" y="0" version="1.1" viewBox="0 0 52 52">
  <path d="M9.654 33.238c.437-2.67-.617-5.159.084-7.753 1.23-4.551 4.353-9.362 8.743-11.271 2.518-1.096 9.597-2.054 12.163-1.392 5.018 1.294 6.465 4.433 8.708 8.566 1.616 2.976 1.312-1.619 2.967 4.861.624 2.443.318 6.055-.337 8.412-1.312 4.728-5.332 7.271-9.683 8.973-3.504 1.37-11.964 1.784-15.33-.458-1.406-.936-2.926-3.773-4.08-5.299-1.58-2.091-2.803-3.787-3.73-6.31-.551-1.498-2.968-.851-2.411.664.898 2.443 1.863 4.422 3.431 6.494 1.399 1.849 2.66 4.252 4.447 5.796 3.692 3.192 11.378 3.257 15.863 2.42 4.069-.758 9.503-3.767 11.893-7.187 2.927-4.19 3.826-11.82 2.026-16.548-.757-1.989-2.77-3.175-3.852-5.05-1.098-1.904-1.57-3.395-3.372-4.917-4.71-3.977-9.86-3.251-15.354-2.343-5.01.827-9.36 3.351-11.9 7.98-1.21 2.206-2.535 4.944-3.094 7.414-.515 2.272.766 4.094.407 6.283-.258 1.574 2.15 2.251 2.41.665z"></path>
  <path d="M26.17 26.067l.074-.331-.574.747c.206-.148 1.165.206 1.371.34.532.348.72.852.882 1.44.345 1.247.377 2.146-1.06 2.573-.753.224-2.41.551-2.894-.364-.188-.355-.094-1.284-.029-1.667.14-.826.74-1.142 1.404-1.524 1.393-.804.135-2.965-1.262-2.159-1.206.696-2.217 1.524-2.542 2.939-.257 1.115-.282 2.705.282 3.733 1.319 2.402 5.027 2.001 7.06.914 2.409-1.289 2.056-4.593.827-6.648-1.003-1.677-5.298-3.542-5.95-.657-.354 1.566 2.056 2.235 2.41.664z"></path>
  <path d="M29.572 27.721c1.134-.776 1.758-1.935 2.61-2.981.887-1.089 1.897-2.065 2.98-2.956 1.244-1.023-.533-2.783-1.767-1.768-.986.81-1.906 1.69-2.735 2.663-.757.887-1.386 2.224-2.35 2.884-1.32.902-.071 3.07 1.262 2.158z"></path>
  <path d="M34.611 21.816c1.609 0 1.612-2.5 0-2.5-1.608 0-1.611 2.5 0 2.5z"></path>
  <path d="M34.611 21.816c1.609 0 1.612-2.5 0-2.5-1.608 0-1.611 2.5 0 2.5zM36.415 8.883a91.622 91.622 0 0 0-2.457 3.308c-.39.552-.1 1.39.448 1.71.626.367 1.32.105 1.71-.448a77.438 77.438 0 0 1 2.067-2.802c.413-.533.52-1.248 0-1.768-.431-.43-1.352-.536-1.768 0z"></path>
  <path d="M34.778 14.4c1.609 0 1.611-2.5 0-2.5-1.609 0-1.611 2.5 0 2.5zM13.454 11.03c.703.371 1.358.857 1.843 1.49.41.534 1.076.818 1.71.448.527-.309.861-1.171.448-1.71-.752-.984-1.638-1.804-2.739-2.387-.596-.316-1.36-.151-1.71.448-.33.565-.15 1.394.448 1.71z"></path>
  <path d="M16.528 13.4c1.609 0 1.611-2.5 0-2.5-1.609 0-1.611 2.5 0 2.5zM31.352 5.042c-2.643-1.17-5.86.409-8.654.165-1.602-.14-1.593 2.36 0 2.5 1.23.107 2.419-.018 3.633-.198 1.053-.157 2.763-.75 3.759-.308 1.458.646 2.731-1.508 1.262-2.159z"></path>
  <path d="M25.059 6.818c.068.483-.354 1.29-.452 1.78-.141.705-.222 1.422-.309 2.135-.081.676.634 1.244 1.25 1.25.743.008 1.17-.583 1.25-1.25.184-1.518.887-3.057.671-4.58-.095-.673-.945-1.029-1.537-.873-.721.19-.968.873-.873 1.538z"></path>
</svg>
